<mxfile host="app.diagrams.net" agent="Mozilla/5.0 (Windows NT 10.0; Win64; x64) AppleWebKit/537.36 (KHTML, like Gecko) Chrome/133.0.0.0 Safari/537.36" version="26.0.16">
  <diagram name="第 1 页" id="NnoXjJgjK0HlXypN2feK">
    <mxGraphModel dx="1050" dy="1691" grid="1" gridSize="10" guides="1" tooltips="1" connect="1" arrows="1" fold="1" page="1" pageScale="1" pageWidth="827" pageHeight="1169" math="0" shadow="0">
      <root>
        <mxCell id="0" />
        <mxCell id="1" parent="0" />
        <mxCell id="cIEJ3m5f7yOJOoQ0Mt_8-1" value="&lt;font style=&quot;font-size: 20px;&quot;&gt;召唤&lt;/font&gt;" style="rounded=0;whiteSpace=wrap;html=1;" vertex="1" parent="1">
          <mxGeometry x="280" y="-800" width="80" height="40" as="geometry" />
        </mxCell>
        <mxCell id="cIEJ3m5f7yOJOoQ0Mt_8-2" value="&lt;font style=&quot;font-size: 20px;&quot;&gt;收回&lt;/font&gt;" style="rounded=0;whiteSpace=wrap;html=1;" vertex="1" parent="1">
          <mxGeometry x="370" y="-800" width="80" height="40" as="geometry" />
        </mxCell>
        <mxCell id="cIEJ3m5f7yOJOoQ0Mt_8-3" value="&lt;font style=&quot;font-size: 20px;&quot;&gt;返回界面&lt;/font&gt;" style="rounded=0;whiteSpace=wrap;html=1;" vertex="1" parent="1">
          <mxGeometry x="460" y="-790" width="110" height="40" as="geometry" />
        </mxCell>
        <mxCell id="cIEJ3m5f7yOJOoQ0Mt_8-4" value="&lt;span style=&quot;font-size: 20px;&quot;&gt;战斗&lt;/span&gt;" style="rounded=0;whiteSpace=wrap;html=1;" vertex="1" parent="1">
          <mxGeometry x="370" y="-870" width="80" height="40" as="geometry" />
        </mxCell>
        <mxCell id="cIEJ3m5f7yOJOoQ0Mt_8-9" style="edgeStyle=orthogonalEdgeStyle;rounded=0;orthogonalLoop=1;jettySize=auto;html=1;exitX=1;exitY=0.5;exitDx=0;exitDy=0;entryX=0;entryY=0.5;entryDx=0;entryDy=0;" edge="1" parent="1" source="cIEJ3m5f7yOJOoQ0Mt_8-5" target="cIEJ3m5f7yOJOoQ0Mt_8-7">
          <mxGeometry relative="1" as="geometry" />
        </mxCell>
        <mxCell id="cIEJ3m5f7yOJOoQ0Mt_8-5" value="&lt;font style=&quot;font-size: 20px;&quot;&gt;复位&lt;/font&gt;" style="rounded=0;whiteSpace=wrap;html=1;" vertex="1" parent="1">
          <mxGeometry x="10" y="-790" width="80" height="40" as="geometry" />
        </mxCell>
        <mxCell id="cIEJ3m5f7yOJOoQ0Mt_8-7" value="&lt;font style=&quot;font-size: 20px;&quot;&gt;走向指定位置&lt;/font&gt;" style="rounded=0;whiteSpace=wrap;html=1;" vertex="1" parent="1">
          <mxGeometry x="110" y="-790" width="130" height="40" as="geometry" />
        </mxCell>
        <mxCell id="cIEJ3m5f7yOJOoQ0Mt_8-11" value="&lt;font style=&quot;font-size: 20px;&quot;&gt;收集数据集&lt;/font&gt;" style="text;html=1;align=center;verticalAlign=middle;whiteSpace=wrap;rounded=0;" vertex="1" parent="1">
          <mxGeometry x="90" y="-1150" width="200" height="30" as="geometry" />
        </mxCell>
        <mxCell id="cIEJ3m5f7yOJOoQ0Mt_8-12" style="edgeStyle=orthogonalEdgeStyle;rounded=0;orthogonalLoop=1;jettySize=auto;html=1;exitX=1;exitY=0.5;exitDx=0;exitDy=0;entryX=0;entryY=0.5;entryDx=0;entryDy=0;" edge="1" parent="1" source="cIEJ3m5f7yOJOoQ0Mt_8-13" target="cIEJ3m5f7yOJOoQ0Mt_8-14">
          <mxGeometry relative="1" as="geometry" />
        </mxCell>
        <mxCell id="cIEJ3m5f7yOJOoQ0Mt_8-13" value="&lt;font style=&quot;font-size: 20px;&quot;&gt;复位&lt;/font&gt;" style="rounded=0;whiteSpace=wrap;html=1;" vertex="1" parent="1">
          <mxGeometry x="20" y="-1100" width="80" height="40" as="geometry" />
        </mxCell>
        <mxCell id="cIEJ3m5f7yOJOoQ0Mt_8-17" style="edgeStyle=orthogonalEdgeStyle;rounded=0;orthogonalLoop=1;jettySize=auto;html=1;exitX=1;exitY=0.5;exitDx=0;exitDy=0;entryX=0;entryY=0.5;entryDx=0;entryDy=0;" edge="1" parent="1" source="cIEJ3m5f7yOJOoQ0Mt_8-14" target="cIEJ3m5f7yOJOoQ0Mt_8-16">
          <mxGeometry relative="1" as="geometry" />
        </mxCell>
        <mxCell id="cIEJ3m5f7yOJOoQ0Mt_8-14" value="&lt;font style=&quot;font-size: 20px;&quot;&gt;走向指定位置&lt;/font&gt;" style="rounded=0;whiteSpace=wrap;html=1;" vertex="1" parent="1">
          <mxGeometry x="120" y="-1100" width="130" height="40" as="geometry" />
        </mxCell>
        <mxCell id="cIEJ3m5f7yOJOoQ0Mt_8-21" style="edgeStyle=orthogonalEdgeStyle;rounded=0;orthogonalLoop=1;jettySize=auto;html=1;exitX=1;exitY=0.5;exitDx=0;exitDy=0;" edge="1" parent="1" source="cIEJ3m5f7yOJOoQ0Mt_8-16">
          <mxGeometry relative="1" as="geometry">
            <mxPoint x="260" y="-1080" as="targetPoint" />
          </mxGeometry>
        </mxCell>
        <mxCell id="cIEJ3m5f7yOJOoQ0Mt_8-22" value="&lt;font style=&quot;font-size: 20px;&quot;&gt;循环五次&lt;/font&gt;" style="edgeLabel;html=1;align=center;verticalAlign=middle;resizable=0;points=[];" vertex="1" connectable="0" parent="cIEJ3m5f7yOJOoQ0Mt_8-21">
          <mxGeometry x="0.0816" y="5" relative="1" as="geometry">
            <mxPoint as="offset" />
          </mxGeometry>
        </mxCell>
        <mxCell id="cIEJ3m5f7yOJOoQ0Mt_8-25" style="edgeStyle=orthogonalEdgeStyle;rounded=0;orthogonalLoop=1;jettySize=auto;html=1;" edge="1" parent="1" source="cIEJ3m5f7yOJOoQ0Mt_8-16" target="cIEJ3m5f7yOJOoQ0Mt_8-24">
          <mxGeometry relative="1" as="geometry" />
        </mxCell>
        <mxCell id="cIEJ3m5f7yOJOoQ0Mt_8-16" value="&lt;font style=&quot;font-size: 20px;&quot;&gt;找血条截图传服务器&lt;/font&gt;" style="rounded=0;whiteSpace=wrap;html=1;" vertex="1" parent="1">
          <mxGeometry x="280" y="-1120" width="70" height="80" as="geometry" />
        </mxCell>
        <mxCell id="cIEJ3m5f7yOJOoQ0Mt_8-18" value="&lt;span style=&quot;font-size: 20px;&quot;&gt;不战斗&lt;/span&gt;" style="rounded=0;whiteSpace=wrap;html=1;" vertex="1" parent="1">
          <mxGeometry x="270" y="-860" width="80" height="40" as="geometry" />
        </mxCell>
        <mxCell id="cIEJ3m5f7yOJOoQ0Mt_8-26" style="edgeStyle=orthogonalEdgeStyle;rounded=0;orthogonalLoop=1;jettySize=auto;html=1;exitX=1;exitY=0.5;exitDx=0;exitDy=0;" edge="1" parent="1" source="cIEJ3m5f7yOJOoQ0Mt_8-24">
          <mxGeometry relative="1" as="geometry">
            <mxPoint x="370" y="-1020" as="targetPoint" />
          </mxGeometry>
        </mxCell>
        <mxCell id="cIEJ3m5f7yOJOoQ0Mt_8-27" value="&lt;font style=&quot;font-size: 16px;&quot;&gt;循环到结束&lt;/font&gt;" style="edgeLabel;html=1;align=center;verticalAlign=middle;resizable=0;points=[];" vertex="1" connectable="0" parent="cIEJ3m5f7yOJOoQ0Mt_8-26">
          <mxGeometry x="0.2651" y="5" relative="1" as="geometry">
            <mxPoint as="offset" />
          </mxGeometry>
        </mxCell>
        <mxCell id="cIEJ3m5f7yOJOoQ0Mt_8-24" value="&lt;span style=&quot;font-size: 20px;&quot;&gt;战斗&lt;/span&gt;" style="rounded=0;whiteSpace=wrap;html=1;" vertex="1" parent="1">
          <mxGeometry x="390" y="-1100" width="80" height="40" as="geometry" />
        </mxCell>
      </root>
    </mxGraphModel>
  </diagram>
</mxfile>
